<svg data-logo="logo" xmlns="http://www.w3.org/2000/svg" viewBox="0 0 220 41">
          <g style="opacity: 1;" id="logogram" transform="translate(0, 0) rotate(0)"><path fill-rule="evenodd" clip-rule="evenodd" d="M20.543 40.7827C31.5887 40.7827 40.543 31.8284 40.543 20.7827C40.543 9.73702 31.5887 0.782715 20.543 0.782715C9.49726 0.782715 0.542969 9.73702 0.542969 20.7827C0.542969 31.8284 9.49726 40.7827 20.543 40.7827ZM26.7823 10.0996C27.086 9.02076 26.0391 8.38284 25.083 9.06401L11.7361 18.5723C10.6992 19.311 10.8623 20.7827 11.9811 20.7827H15.4957V20.7555H22.3455L16.7642 22.7248L14.3037 31.4659C14 32.5447 15.0468 33.1826 16.003 32.5014L29.3499 22.9932C30.3868 22.2545 30.2236 20.7827 29.1049 20.7827H23.7751L26.7823 10.0996Z" fill="#F15757"></path></g>
          <g style="opacity: 1;" id="logotype" transform="translate(47, 3)"><path fill="#ffffff" d="M13.52 35L8.31 35L8.31 9.54L25.06 9.54L25.06 13.86L13.52 13.86L13.52 20.97L23.93 20.97L23.93 25.22L13.52 25.22L13.52 35ZM26.45 9.54L31.58 9.54L31.58 35L26.45 35L26.45 9.54ZM39.00 35.38L39.00 35.38Q37.18 35.38 35.74 34.74Q34.30 34.09 33.47 32.82Q32.64 31.55 32.64 29.65L32.64 29.65Q32.64 28.06 33.23 26.98Q33.82 25.91 34.84 25.26Q35.85 24.61 37.14 24.27Q38.43 23.93 39.85 23.79L39.85 23.79Q41.51 23.62 42.53 23.47Q43.54 23.33 44.01 23.01Q44.48 22.70 44.48 22.08L44.48 22.08L44.48 21.99Q44.48 21.17 44.14 20.61Q43.80 20.05 43.13 19.75Q42.47 19.45 41.49 19.45L41.49 19.45Q40.50 19.45 39.77 19.75Q39.03 20.05 38.57 20.54Q38.11 21.04 37.89 21.65L37.89 21.65L33.19 20.87Q33.68 19.21 34.83 18.05Q35.97 16.88 37.67 16.27Q39.37 15.65 41.49 15.65L41.49 15.65Q43.05 15.65 44.50 16.02Q45.95 16.39 47.11 17.16Q48.26 17.93 48.93 19.16Q49.61 20.39 49.61 22.13L49.61 22.13L49.61 35L44.76 35L44.76 32.35L44.58 32.35Q44.12 33.24 43.35 33.91Q42.59 34.59 41.50 34.98Q40.41 35.38 39.00 35.38ZM40.45 31.77L40.45 31.77Q41.66 31.77 42.58 31.29Q43.49 30.81 44.00 29.99Q44.52 29.17 44.52 28.16L44.52 28.16L44.52 26.10Q44.29 26.27 43.83 26.40Q43.37 26.54 42.81 26.64Q42.24 26.75 41.70 26.83Q41.15 26.92 40.72 26.97L40.72 26.97Q39.78 27.10 39.06 27.41Q38.35 27.72 37.95 28.22Q37.56 28.73 37.56 29.51L37.56 29.51Q37.56 30.25 37.94 30.75Q38.31 31.26 38.95 31.51Q39.59 31.77 40.45 31.77ZM59.30 35.38L59.30 35.38Q56.99 35.38 55.21 34.72Q53.44 34.06 52.31 32.80Q51.18 31.55 50.85 29.77L50.85 29.77L55.62 28.95Q56.00 30.28 56.94 30.95Q57.88 31.62 59.45 31.62L59.45 31.62Q60.90 31.62 61.76 31.06Q62.61 30.51 62.61 29.65L62.61 29.65Q62.61 28.90 62.01 28.42Q61.40 27.94 60.15 27.69L60.15 27.69L56.85 27.00Q54.08 26.44 52.72 25.08Q51.35 23.72 51.35 21.58L51.35 21.58Q51.35 19.74 52.36 18.41Q53.37 17.09 55.16 16.37Q56.96 15.65 59.38 15.65L59.38 15.65Q61.64 15.65 63.30 16.28Q64.95 16.90 65.98 18.05Q67.00 19.19 67.35 20.75L67.35 20.75L62.80 21.55Q62.51 20.58 61.68 19.95Q60.85 19.33 59.45 19.33L59.45 19.33Q58.19 19.33 57.33 19.86Q56.48 20.39 56.48 21.26L56.48 21.26Q56.48 21.99 57.03 22.49Q57.59 22.99 58.94 23.26L58.94 23.26L62.37 23.94Q65.14 24.51 66.49 25.78Q67.84 27.05 67.84 29.10L67.84 29.10Q67.84 30.98 66.75 32.39Q65.65 33.80 63.73 34.59Q61.81 35.38 59.30 35.38ZM74.16 23.94L74.16 23.94L74.16 35L69.04 35L69.04 9.54L74.06 9.54L74.06 20.66L73.65 20.66Q74.40 18.27 75.93 16.96Q77.46 15.65 79.89 15.65L79.89 15.65Q81.87 15.65 83.35 16.52Q84.83 17.38 85.64 19.00Q86.45 20.61 86.45 22.85L86.45 22.85L86.45 35L81.32 35L81.32 23.74Q81.32 21.96 80.41 20.95Q79.50 19.94 77.87 19.94L77.87 19.94Q76.80 19.94 75.95 20.41Q75.10 20.88 74.63 21.77Q74.16 22.66 74.16 23.94ZM104.87 35L88.67 35L88.67 9.54L93.88 9.54L93.88 30.68L104.87 30.68L104.87 35ZM114.70 35.38L114.70 35.38Q111.77 35.38 109.65 34.18Q107.54 32.98 106.40 30.78Q105.26 28.57 105.26 25.55L105.26 25.55Q105.26 22.59 106.39 20.37Q107.52 18.15 109.59 16.90Q111.65 15.65 114.44 15.65L114.44 15.65Q116.32 15.65 117.94 16.25Q119.57 16.85 120.80 18.06Q122.03 19.26 122.72 21.07Q123.41 22.88 123.41 25.34L123.41 25.34L123.41 26.78L107.36 26.78L107.36 23.57L120.90 23.57L118.51 24.42Q118.51 22.93 118.05 21.83Q117.60 20.73 116.70 20.12Q115.81 19.52 114.47 19.52L114.47 19.52Q113.16 19.52 112.23 20.13Q111.30 20.75 110.82 21.80Q110.34 22.85 110.34 24.20L110.34 24.20L110.34 26.47Q110.34 28.13 110.89 29.26Q111.45 30.39 112.45 30.95Q113.45 31.51 114.78 31.51L114.78 31.51Q115.69 31.51 116.42 31.26Q117.16 31.00 117.68 30.50Q118.20 29.99 118.47 29.26L118.47 29.26L123.12 30.13Q122.66 31.70 121.52 32.89Q120.37 34.08 118.65 34.73Q116.93 35.38 114.70 35.38ZM129.97 35.38L129.97 35.38Q128.16 35.38 126.72 34.74Q125.27 34.09 124.44 32.82Q123.62 31.55 123.62 29.65L123.62 29.65Q123.62 28.06 124.20 26.98Q124.79 25.91 125.81 25.26Q126.83 24.61 128.12 24.27Q129.41 23.93 130.83 23.79L130.83 23.79Q132.48 23.62 133.50 23.47Q134.52 23.33 134.99 23.01Q135.46 22.70 135.46 22.08L135.46 22.08L135.46 21.99Q135.46 21.17 135.12 20.61Q134.77 20.05 134.11 19.75Q133.44 19.45 132.47 19.45L132.47 19.45Q131.48 19.45 130.74 19.75Q130.01 20.05 129.55 20.54Q129.08 21.04 128.86 21.65L128.86 21.65L124.16 20.87Q124.66 19.21 125.80 18.05Q126.95 16.88 128.65 16.27Q130.35 15.65 132.47 15.65L132.47 15.65Q134.02 15.65 135.48 16.02Q136.93 16.39 138.08 17.16Q139.24 17.93 139.91 19.16Q140.59 20.39 140.59 22.13L140.59 22.13L140.59 35L135.73 35L135.73 32.35L135.56 32.35Q135.10 33.24 134.33 33.91Q133.56 34.59 132.48 34.98Q131.39 35.38 129.97 35.38ZM131.43 31.77L131.43 31.77Q132.64 31.77 133.55 31.29Q134.47 30.81 134.98 29.99Q135.49 29.17 135.49 28.16L135.49 28.16L135.49 26.10Q135.27 26.27 134.81 26.40Q134.35 26.54 133.78 26.64Q133.22 26.75 132.67 26.83Q132.13 26.92 131.70 26.97L131.70 26.97Q130.76 27.10 130.04 27.41Q129.32 27.72 128.93 28.22Q128.54 28.73 128.54 29.51L128.54 29.51Q128.54 30.25 128.91 30.75Q129.29 31.26 129.93 31.51Q130.57 31.77 131.43 31.77ZM147.81 35L142.69 35L142.69 15.89L147.64 15.89L147.64 19.23L147.85 19.23Q148.38 17.45 149.62 16.54Q150.85 15.64 152.46 15.64L152.46 15.64Q152.85 15.64 153.31 15.68Q153.76 15.72 154.12 15.81L154.12 15.81L154.12 20.39Q153.78 20.27 153.13 20.20Q152.48 20.13 151.90 20.13L151.90 20.13Q150.73 20.13 149.79 20.64Q148.85 21.14 148.33 22.04Q147.81 22.93 147.81 24.13L147.81 24.13L147.81 35ZM159.79 23.94L159.79 23.94L159.79 35L154.66 35L154.66 15.89L159.50 15.89L159.59 20.66L159.28 20.66Q160.03 18.27 161.56 16.96Q163.09 15.65 165.52 15.65L165.52 15.65Q167.50 15.65 168.97 16.52Q170.44 17.38 171.26 19.00Q172.08 20.61 172.08 22.85L172.08 22.85L172.08 35L166.95 35L166.95 23.74Q166.95 21.96 166.04 20.95Q165.12 19.94 163.50 19.94L163.50 19.94Q162.42 19.94 161.58 20.41Q160.73 20.88 160.26 21.77Q159.79 22.66 159.79 23.94Z"></path></g>
          
        </svg>